<svg width="182" height="41" viewBox="0 0 182 41" fill="none" xmlns="http://www.w3.org/2000/svg">
<path d="M7.71106 40V26.6005L31.3815 9.46214L37.9022 14.1932L44.4439 9.46214L31.3815 0L0 22.7154V40H7.71106Z" fill="white"/>
<path d="M33.2672 40V26.6005L56.9376 9.46214H70.0001L56.9376 0L25.5562 22.7154V40H33.2672Z" fill="white"/>
<path d="M62.57 40C62.3967 40 62.2753 39.922 62.206 39.766L58.956 32.564C58.9213 32.4947 58.8693 32.46 58.8 32.46H56.382C56.2953 32.46 56.252 32.5033 56.252 32.59V39.688C56.252 39.7747 56.2173 39.8527 56.148 39.922C56.096 39.974 56.0267 40 55.94 40H52.898C52.8113 40 52.7333 39.974 52.664 39.922C52.612 39.8527 52.586 39.7747 52.586 39.688V22.112C52.586 22.0253 52.612 21.956 52.664 21.904C52.7333 21.8347 52.8113 21.8 52.898 21.8H60.334C61.4433 21.8 62.414 22.0253 63.246 22.476C64.0953 22.9267 64.7453 23.568 65.196 24.4C65.664 25.232 65.898 26.194 65.898 27.286C65.898 28.4647 65.6033 29.4787 65.014 30.328C64.4247 31.16 63.6013 31.7493 62.544 32.096C62.4573 32.1307 62.4313 32.1913 62.466 32.278L66.002 39.636C66.0367 39.7053 66.054 39.7573 66.054 39.792C66.054 39.9307 65.9587 40 65.768 40H62.57ZM56.382 24.946C56.2953 24.946 56.252 24.9893 56.252 25.076V29.522C56.252 29.6087 56.2953 29.652 56.382 29.652H59.788C60.516 29.652 61.1053 29.4353 61.556 29.002C62.024 28.5687 62.258 28.0053 62.258 27.312C62.258 26.6187 62.024 26.0553 61.556 25.622C61.1053 25.1713 60.516 24.946 59.788 24.946H56.382ZM79.975 31.94C80.079 32.5987 80.1136 33.3353 80.079 34.15C80.0616 34.358 79.949 34.462 79.741 34.462H71.707C71.603 34.462 71.5683 34.5053 71.603 34.592C71.655 34.9387 71.7503 35.2853 71.889 35.632C72.3396 36.6027 73.2583 37.088 74.645 37.088C75.7543 37.0707 76.6296 36.62 77.271 35.736C77.3403 35.632 77.4183 35.58 77.505 35.58C77.557 35.58 77.6176 35.6147 77.687 35.684L79.559 37.53C79.6456 37.6167 79.689 37.6947 79.689 37.764C79.689 37.7987 79.6543 37.868 79.585 37.972C79.013 38.6827 78.2763 39.2373 77.375 39.636C76.4736 40.0173 75.4856 40.208 74.411 40.208C72.9203 40.208 71.655 39.87 70.615 39.194C69.5923 38.518 68.8556 37.5733 68.405 36.36C68.041 35.4933 67.859 34.358 67.859 32.954C67.859 32.0007 67.989 31.16 68.249 30.432C68.6476 29.2013 69.341 28.222 70.329 27.494C71.3343 26.766 72.5216 26.402 73.891 26.402C75.6243 26.402 77.011 26.9047 78.051 27.91C79.1083 28.9153 79.7496 30.2587 79.975 31.94ZM73.917 29.574C72.825 29.574 72.1056 30.0853 71.759 31.108C71.6896 31.3333 71.629 31.6107 71.577 31.94C71.577 32.0267 71.6203 32.07 71.707 32.07H76.205C76.309 32.07 76.3436 32.0267 76.309 31.94C76.2223 31.4373 76.179 31.1947 76.179 31.212C76.023 30.692 75.7456 30.2933 75.347 30.016C74.9656 29.7213 74.489 29.574 73.917 29.574ZM87.5414 26.428C88.668 26.428 89.6734 26.6273 90.5574 27.026C91.4414 27.4073 92.126 27.936 92.6114 28.612C93.114 29.288 93.3654 30.042 93.3654 30.874V39.688C93.3654 39.7747 93.3307 39.8527 93.2614 39.922C93.2094 39.974 93.14 40 93.0534 40H90.0114C89.9247 40 89.8467 39.974 89.7774 39.922C89.7254 39.8527 89.6994 39.7747 89.6994 39.688V38.83C89.6994 38.778 89.682 38.7433 89.6474 38.726C89.6127 38.7087 89.578 38.726 89.5434 38.778C88.8154 39.7313 87.6454 40.208 86.0334 40.208C84.6814 40.208 83.5894 39.8787 82.7574 39.22C81.9254 38.5613 81.5094 37.5907 81.5094 36.308C81.5094 34.9733 81.9774 33.942 82.9134 33.214C83.8494 32.4687 85.184 32.096 86.9174 32.096H89.5694C89.656 32.096 89.6994 32.0527 89.6994 31.966V31.394C89.6994 30.822 89.526 30.38 89.1794 30.068C88.8327 29.7387 88.3127 29.574 87.6194 29.574C87.082 29.574 86.6314 29.6693 86.2674 29.86C85.9207 30.0507 85.6954 30.3193 85.5914 30.666C85.5394 30.8567 85.4267 30.9433 85.2534 30.926L82.1074 30.51C81.8994 30.4753 81.804 30.3973 81.8214 30.276C81.8907 29.548 82.1767 28.8893 82.6794 28.3C83.1994 27.7107 83.8754 27.2513 84.7074 26.922C85.5567 26.5927 86.5014 26.428 87.5414 26.428ZM87.0214 37.478C87.7667 37.478 88.3994 37.2787 88.9194 36.88C89.4394 36.4813 89.6994 35.97 89.6994 35.346V34.41C89.6994 34.3233 89.656 34.28 89.5694 34.28H87.6974C86.9174 34.28 86.302 34.4273 85.8514 34.722C85.418 35.0167 85.2014 35.4327 85.2014 35.97C85.2014 36.438 85.366 36.8107 85.6954 37.088C86.0247 37.348 86.4667 37.478 87.0214 37.478ZM96.2597 40C96.173 40 96.095 39.974 96.0257 39.922C95.9737 39.8527 95.9477 39.7747 95.9477 39.688V22.112C95.9477 22.0253 95.9737 21.956 96.0257 21.904C96.095 21.8347 96.173 21.8 96.2597 21.8H99.3017C99.3884 21.8 99.4577 21.8347 99.5097 21.904C99.579 21.956 99.6137 22.0253 99.6137 22.112V39.688C99.6137 39.7747 99.579 39.8527 99.5097 39.922C99.4577 39.974 99.3884 40 99.3017 40H96.2597ZM120.37 24.634C120.37 24.7207 120.336 24.7987 120.266 24.868C120.214 24.92 120.145 24.946 120.058 24.946H111.53C111.444 24.946 111.4 24.9893 111.4 25.076V29.106C111.4 29.1927 111.444 29.236 111.53 29.236H117.12C117.207 29.236 117.276 29.2707 117.328 29.34C117.398 29.392 117.432 29.4613 117.432 29.548V32.07C117.432 32.1567 117.398 32.2347 117.328 32.304C117.276 32.356 117.207 32.382 117.12 32.382H111.53C111.444 32.382 111.4 32.4253 111.4 32.512V36.724C111.4 36.8107 111.444 36.854 111.53 36.854H120.058C120.145 36.854 120.214 36.8887 120.266 36.958C120.336 37.01 120.37 37.0793 120.37 37.166V39.688C120.37 39.7747 120.336 39.8527 120.266 39.922C120.214 39.974 120.145 40 120.058 40H108.046C107.96 40 107.882 39.974 107.812 39.922C107.76 39.8527 107.734 39.7747 107.734 39.688V22.112C107.734 22.0253 107.76 21.956 107.812 21.904C107.882 21.8347 107.96 21.8 108.046 21.8H120.058C120.145 21.8 120.214 21.8347 120.266 21.904C120.336 21.956 120.37 22.0253 120.37 22.112V24.634ZM128.014 40.182C126.853 40.182 125.839 40.0173 124.972 39.688C124.105 39.3587 123.429 38.8993 122.944 38.31C122.476 37.7207 122.242 37.0533 122.242 36.308V36.048C122.242 35.9613 122.268 35.892 122.32 35.84C122.389 35.7707 122.467 35.736 122.554 35.736H125.44C125.527 35.736 125.596 35.7707 125.648 35.84C125.717 35.892 125.752 35.9613 125.752 36.048V36.074C125.752 36.4553 125.96 36.7847 126.376 37.062C126.809 37.322 127.347 37.452 127.988 37.452C128.577 37.452 129.054 37.3393 129.418 37.114C129.782 36.8713 129.964 36.5767 129.964 36.23C129.964 35.918 129.808 35.684 129.496 35.528C129.184 35.372 128.673 35.2073 127.962 35.034C127.147 34.826 126.506 34.6267 126.038 34.436C124.929 34.0547 124.045 33.5867 123.386 33.032C122.727 32.4773 122.398 31.68 122.398 30.64C122.398 29.3573 122.892 28.3433 123.88 27.598C124.885 26.8353 126.211 26.454 127.858 26.454C128.967 26.454 129.938 26.636 130.77 27C131.602 27.3467 132.243 27.8407 132.694 28.482C133.162 29.1233 133.396 29.8513 133.396 30.666C133.396 30.7527 133.361 30.8307 133.292 30.9C133.24 30.952 133.171 30.978 133.084 30.978H130.302C130.215 30.978 130.137 30.952 130.068 30.9C130.016 30.8307 129.99 30.7527 129.99 30.666C129.99 30.2847 129.791 29.964 129.392 29.704C129.011 29.444 128.499 29.314 127.858 29.314C127.286 29.314 126.818 29.418 126.454 29.626C126.09 29.834 125.908 30.12 125.908 30.484C125.908 30.8307 126.081 31.0907 126.428 31.264C126.792 31.4373 127.39 31.6193 128.222 31.81C128.413 31.862 128.629 31.9227 128.872 31.992C129.115 32.044 129.375 32.1133 129.652 32.2C130.883 32.564 131.853 33.032 132.564 33.604C133.275 34.176 133.63 35.008 133.63 36.1C133.63 37.3827 133.119 38.388 132.096 39.116C131.091 39.8267 129.73 40.182 128.014 40.182ZM143.379 29.262C143.379 29.3487 143.345 29.4267 143.275 29.496C143.223 29.548 143.154 29.574 143.067 29.574H140.571C140.485 29.574 140.441 29.6173 140.441 29.704V35.216C140.441 35.788 140.554 36.2127 140.779 36.49C141.022 36.7673 141.403 36.906 141.923 36.906H142.781C142.868 36.906 142.937 36.9407 142.989 37.01C143.059 37.062 143.093 37.1313 143.093 37.218V39.688C143.093 39.8787 142.989 39.9913 142.781 40.026C142.053 40.0607 141.533 40.078 141.221 40.078C139.783 40.078 138.708 39.844 137.997 39.376C137.287 38.8907 136.923 37.9893 136.905 36.672V29.704C136.905 29.6173 136.862 29.574 136.775 29.574H135.293C135.207 29.574 135.129 29.548 135.059 29.496C135.007 29.4267 134.981 29.3487 134.981 29.262V26.948C134.981 26.8613 135.007 26.792 135.059 26.74C135.129 26.6707 135.207 26.636 135.293 26.636H136.775C136.862 26.636 136.905 26.5927 136.905 26.506V23.412C136.905 23.3253 136.931 23.256 136.983 23.204C137.053 23.1347 137.131 23.1 137.217 23.1H140.129C140.216 23.1 140.285 23.1347 140.337 23.204C140.407 23.256 140.441 23.3253 140.441 23.412V26.506C140.441 26.5927 140.485 26.636 140.571 26.636H143.067C143.154 26.636 143.223 26.6707 143.275 26.74C143.345 26.792 143.379 26.8613 143.379 26.948V29.262ZM150.916 26.428C152.043 26.428 153.048 26.6273 153.932 27.026C154.816 27.4073 155.501 27.936 155.986 28.612C156.489 29.288 156.74 30.042 156.74 30.874V39.688C156.74 39.7747 156.706 39.8527 156.636 39.922C156.584 39.974 156.515 40 156.428 40H153.386C153.3 40 153.222 39.974 153.152 39.922C153.1 39.8527 153.074 39.7747 153.074 39.688V38.83C153.074 38.778 153.057 38.7433 153.022 38.726C152.988 38.7087 152.953 38.726 152.918 38.778C152.19 39.7313 151.02 40.208 149.408 40.208C148.056 40.208 146.964 39.8787 146.132 39.22C145.3 38.5613 144.884 37.5907 144.884 36.308C144.884 34.9733 145.352 33.942 146.288 33.214C147.224 32.4687 148.559 32.096 150.292 32.096H152.944C153.031 32.096 153.074 32.0527 153.074 31.966V31.394C153.074 30.822 152.901 30.38 152.554 30.068C152.208 29.7387 151.688 29.574 150.994 29.574C150.457 29.574 150.006 29.6693 149.642 29.86C149.296 30.0507 149.07 30.3193 148.966 30.666C148.914 30.8567 148.802 30.9433 148.628 30.926L145.482 30.51C145.274 30.4753 145.179 30.3973 145.196 30.276C145.266 29.548 145.552 28.8893 146.054 28.3C146.574 27.7107 147.25 27.2513 148.082 26.922C148.932 26.5927 149.876 26.428 150.916 26.428ZM150.396 37.478C151.142 37.478 151.774 37.2787 152.294 36.88C152.814 36.4813 153.074 35.97 153.074 35.346V34.41C153.074 34.3233 153.031 34.28 152.944 34.28H151.072C150.292 34.28 149.677 34.4273 149.226 34.722C148.793 35.0167 148.576 35.4327 148.576 35.97C148.576 36.438 148.741 36.8107 149.07 37.088C149.4 37.348 149.842 37.478 150.396 37.478ZM166.713 29.262C166.713 29.3487 166.679 29.4267 166.609 29.496C166.557 29.548 166.488 29.574 166.401 29.574H163.905C163.819 29.574 163.775 29.6173 163.775 29.704V35.216C163.775 35.788 163.888 36.2127 164.113 36.49C164.356 36.7673 164.737 36.906 165.257 36.906H166.115C166.202 36.906 166.271 36.9407 166.323 37.01C166.393 37.062 166.427 37.1313 166.427 37.218V39.688C166.427 39.8787 166.323 39.9913 166.115 40.026C165.387 40.0607 164.867 40.078 164.555 40.078C163.117 40.078 162.042 39.844 161.331 39.376C160.621 38.8907 160.257 37.9893 160.239 36.672V29.704C160.239 29.6173 160.196 29.574 160.109 29.574H158.627C158.541 29.574 158.463 29.548 158.393 29.496C158.341 29.4267 158.315 29.3487 158.315 29.262V26.948C158.315 26.8613 158.341 26.792 158.393 26.74C158.463 26.6707 158.541 26.636 158.627 26.636H160.109C160.196 26.636 160.239 26.5927 160.239 26.506V23.412C160.239 23.3253 160.265 23.256 160.317 23.204C160.387 23.1347 160.465 23.1 160.551 23.1H163.463C163.55 23.1 163.619 23.1347 163.671 23.204C163.741 23.256 163.775 23.3253 163.775 23.412V26.506C163.775 26.5927 163.819 26.636 163.905 26.636H166.401C166.488 26.636 166.557 26.6707 166.609 26.74C166.679 26.792 166.713 26.8613 166.713 26.948V29.262ZM180.573 31.94C180.677 32.5987 180.711 33.3353 180.677 34.15C180.659 34.358 180.547 34.462 180.339 34.462H172.305C172.201 34.462 172.166 34.5053 172.201 34.592C172.253 34.9387 172.348 35.2853 172.487 35.632C172.937 36.6027 173.856 37.088 175.243 37.088C176.352 37.0707 177.227 36.62 177.869 35.736C177.938 35.632 178.016 35.58 178.103 35.58C178.155 35.58 178.215 35.6147 178.285 35.684L180.157 37.53C180.243 37.6167 180.287 37.6947 180.287 37.764C180.287 37.7987 180.252 37.868 180.183 37.972C179.611 38.6827 178.874 39.2373 177.973 39.636C177.071 40.0173 176.083 40.208 175.009 40.208C173.518 40.208 172.253 39.87 171.213 39.194C170.19 38.518 169.453 37.5733 169.003 36.36C168.639 35.4933 168.457 34.358 168.457 32.954C168.457 32.0007 168.587 31.16 168.847 30.432C169.245 29.2013 169.939 28.222 170.927 27.494C171.932 26.766 173.119 26.402 174.489 26.402C176.222 26.402 177.609 26.9047 178.649 27.91C179.706 28.9153 180.347 30.2587 180.573 31.94ZM174.515 29.574C173.423 29.574 172.703 30.0853 172.357 31.108C172.287 31.3333 172.227 31.6107 172.175 31.94C172.175 32.0267 172.218 32.07 172.305 32.07H176.803C176.907 32.07 176.941 32.0267 176.907 31.94C176.82 31.4373 176.777 31.1947 176.777 31.212C176.621 30.692 176.343 30.2933 175.945 30.016C175.563 29.7213 175.087 29.574 174.515 29.574Z" fill="white"/>
</svg>
