<svg width="6712" height="2165" viewBox="0 0 6712 2165" fill="none" xmlns="http://www.w3.org/2000/svg">
<path d="M2045 1534.2C1969.9 1528.8 1894.9 1518.5 1820.7 1503.3C1714.8 1481.5 1607.2 1449.9 1500.9 1409.2C1400.8 1370.9 1299 1323.5 1198.3 1268.4C1017.3 1169.3 832.1 1040.6 647.8 885.9L636.4 876.3C450 719.7 238.8 542.3 2.20005 584.6L0.800049 576.7C241 533.8 453.8 712.5 641.5 870.2L652.9 879.8C1051.4 1214.3 1433.9 1415.7 1822.2 1495.5C1897.7 1511 1973.3 1521.4 2048.2 1526.8C2439.7 1554.9 2814.2 1446.5 3081.3 1221.3C3222.3 1102.4 3334.9 951.3 3443.8 805.2C3527.7 692.7 3614.5 576.3 3714 474.7C4026.9 155.2 4480.4 -21.4 4927 2.19996C5373.6 25.8 5805.9 249.3 6083.4 600L6077.1 605C5806.8 263.5 5389 43.1999 4954.7 11.9999C4945.3 11.2999 4935.9 10.7 4926.5 10.2C4482.2 -13.3 4031 162.5 3719.6 480.3C3620.4 581.5 3533.8 697.7 3450.1 810C3340.9 956.4 3228.1 1107.9 3086.3 1227.4C3003 1297.6 2908.7 1357.3 2805.8 1404.8C2707.4 1450.2 2600.9 1484.7 2489.2 1507.2C2346.3 1536 2195.7 1545 2045 1534.2Z" fill="white"/>
<g opacity="0.9091">
<path d="M2059.2 1576.1C1992.8 1571.3 1926.6 1562.4 1861.4 1549.4C1804 1537.9 1745.9 1523.3 1688.8 1505.9C1515.7 1453.1 1346.4 1377.5 1185.5 1281.1C1027.6 1186.5 880.6 1073.6 748.4 945.4C716.9 914.9 687.2 881.3 658.4 848.9C633 820.2 606.8 790.6 579.3 763C507.5 691.1 444.4 642.5 380.8 609.9C278.2 557.6 161.9 541.2 44.5 562.4L43.2 555.2C102.3 544.5 161.3 543.1 218.3 551.1C276 559.1 331.8 576.7 384.1 603.4C448.5 636.3 512.2 685.4 584.5 757.8C612.2 785.6 638.5 815.3 663.9 844C692.6 876.3 722.2 909.8 753.5 940.1C1022 1200.5 1346.2 1393.7 1690.9 1498.9C1747.8 1516.2 1805.6 1530.8 1862.7 1542.2C1929.1 1555.5 1995.9 1564.4 2062.3 1569.2C2436.2 1596.1 2801.8 1490.2 3069.5 1271.8C3208.2 1158.6 3324.4 1020.7 3436.8 887.3C3531.1 775.4 3628.5 659.7 3738.5 559.7C3990.4 330.5 4319.9 181 4666.4 138.6C4769.9 125.9 4873.5 123.2 4974.3 130.4C4974.9 130.4 4975.6 130.5 4976.2 130.5C5126 141.5 5272.2 174.4 5410.8 228.3C5542.3 279.5 5674.6 353 5804.2 446.9C5921.6 532 6037.9 633.7 6140.4 741.2L6135.1 746.3C6032.8 639.1 5916.9 537.6 5799.9 452.9C5670.8 359.4 5539 286.2 5408.1 235.2C5270.2 181.5 5124.7 148.8 4975.6 137.8C4975 137.8 4974.3 137.7 4973.7 137.7C4873.4 130.5 4770.3 133.2 4667.2 145.8C4322.2 188 3994.2 336.8 3743.4 565C3633.8 664.7 3536.5 780.2 3442.4 891.9C3329.8 1025.6 3213.3 1163.8 3074.1 1277.4C2993 1343.6 2902 1400.3 2803.6 1445.9C2708.7 1489.9 2606.7 1523.7 2500.5 1546.3C2357.5 1576.8 2207.7 1586.7 2059.2 1576.1Z" fill="white"/>
</g>
<g opacity="0.8182">
<path d="M2074.5 1618.3C2016.4 1614.1 1958.8 1606.6 1902 1595.6C1846.8 1585 1791.2 1571.1 1736.7 1554.5C1567.2 1502.8 1405.2 1429.9 1255.1 1337.6C1101.4 1243.1 964.8 1131.2 849.1 1004.9C811.7 964.1 780.3 917.8 749.8 873.1C728.5 841.7 706.4 809.3 682.5 779.1C610.4 688.1 543.5 627.6 472 588.8C363 529.8 233.4 513.5 86.6001 540.3L85.4001 533.7C155.5 520.9 223 518 286 525C354.6 532.6 418.3 552.1 475.2 583C570.2 634.7 642 717.4 687.7 775.1C711.7 805.6 733.9 838.1 755.2 869.5C785.5 914 816.8 960.1 853.9 1000.6C1081.7 1249.3 1395.8 1443.8 1738.5 1548.2C1792.8 1564.7 1848.2 1578.5 1903.1 1589.1C2313.8 1668.5 2745.4 1568.8 3057.5 1322.5C3191.6 1216.7 3309.1 1092.9 3422.6 973.2C3529.4 860.6 3639.9 744.2 3762.7 644.8C3894.8 537.9 4044.2 450.4 4206.7 384.7C4368.9 319.1 4539 277.3 4712.4 260.5C4818.5 250.2 4923.7 249.7 5025 259.1C5178.2 273.4 5324.8 310.2 5460.5 368.3C5584.2 421.2 5707.8 495.1 5849.7 600.6C5973.8 693 6095 795.1 6197.1 882.9L6192.7 888C6090.7 800.3 5969.6 698.3 5845.7 606C5704.3 500.8 5581.1 427.2 5457.9 374.5C5322.8 316.6 5176.9 280 5024.4 265.8C4923.4 256.4 4818.7 256.9 4713 267.2C4366.3 300.9 4030.3 436.9 3766.9 650.1C3644.5 749.2 3534.2 865.4 3427.5 977.9C3313.8 1097.8 3196.2 1221.7 3061.7 1327.8C2982.8 1390.1 2895.2 1443.8 2801.3 1487.5C2709.8 1530.1 2612.3 1563.2 2511.6 1585.9C2368.9 1617.8 2220.4 1628.7 2074.5 1618.3Z" fill="white"/>
</g>
<g opacity="0.7273">
<path d="M2092.2 1660.9C2042 1657.3 1992.1 1650.9 1942.7 1641.7C1889.8 1631.9 1836.6 1618.9 1784.7 1603C1448.8 1500.7 1152.3 1309.4 949.9 1064.5C908.7 1014.6 877.6 957.3 847.6 901.9C828.3 866.4 808.4 829.6 786 795.3C714.2 685.5 643.5 613.2 563.5 567.6C449 502.7 302.8 486 129 518L127.9 512C209.3 497 285.3 492.6 353.9 498.7C433 505.8 504.5 527.2 566.5 562.3C647.4 608.4 718.7 681.3 791.1 791.9C813.6 826.5 833.6 863.3 852.9 898.9C882.8 954 913.7 1011.1 954.6 1060.5C1156.3 1304.5 1451.7 1495 1786.5 1597C1838.2 1612.8 1891.1 1625.7 1943.8 1635.5C2324.8 1706.4 2736.8 1608.2 3045.9 1372.7C3172.3 1276.4 3287.3 1168.4 3398.5 1063.9C3521.2 948.7 3648 829.5 3787.3 729.6C3925.8 630.2 4079.9 549.8 4245.5 490.5C4411.2 431.2 4584 394.6 4758.9 381.9C4866.9 374 4973.1 375.8 5074.4 387.2C5230.9 404.9 5377.8 445.5 5510.9 507.8C5653.2 574.3 5780 665.4 5895.8 753.8C5928 778.4 5960.7 803.7 5992.5 828.2C6080.6 896.3 6171.7 966.8 6254.4 1024L6250.9 1029C6168.1 971.7 6076.9 901.2 5988.8 833C5957.1 808.5 5924.3 783.1 5892.2 758.6C5776.7 670.3 5650.2 579.5 5508.4 513.2C5375.9 451.2 5229.6 410.8 5073.8 393.2C4972.9 381.8 4867.1 380.1 4759.5 387.9C4411.1 413.3 4067.1 536.3 3791 734.4C3652.1 834.1 3525.4 953.1 3402.8 1068.2C3291.5 1172.8 3176.4 1280.9 3049.7 1377.4C2779.3 1583.8 2430.5 1685.2 2092.2 1660.9Z" fill="white"/>
</g>
<g opacity="0.6364">
<path d="M2110.1 1703.7C2067.3 1700.6 2025 1695.4 1983.4 1688C1932.8 1679 1882.1 1666.8 1832.7 1651.8C1756.1 1628.5 1680.4 1599.4 1607.8 1565.3C1534.4 1530.9 1463.7 1491.1 1397.6 1447.1C1259.5 1355.2 1142.8 1246.7 1050.8 1124.4C1006.6 1065.6 976.5 998 947.4 932.5C929.6 892.4 911.1 850.9 889.6 811.9C818.4 683.5 743.9 599.3 655.1 546.8C533 475 374.8 458.4 171.5 496.1L170.5 490.7C264.6 473.3 346.7 467.4 421.5 472.8C421.7 472.8 421.9 472.8 422.1 472.8C511.5 479.3 590.8 502.6 657.9 542.1C707.2 571.2 751.8 609.9 794.3 660.4C829 701.7 861.8 750.4 894.4 809.2C916 848.4 934.5 890 952.4 930.2C981.4 995.4 1011.3 1062.8 1055.2 1121C1236.7 1362.2 1513.5 1548.8 1834.4 1646.5C1883.6 1661.5 1934.1 1673.6 1984.5 1682.6C2335.8 1745.3 2728.3 1648.5 3034.2 1423.7C3147.8 1340.2 3254.9 1250.1 3358.4 1163C3508.6 1036.6 3650.4 917.3 3811.7 815.1C3956.5 723.3 4115.5 650 4284 597.1C4453.3 544 4628.6 512.7 4805.1 504.1C4915.2 498.7 5022.3 502.7 5123.4 516.1C5283 537.3 5430.2 581.7 5560.8 648C5700.3 718.8 5823 814.9 5941.5 907.8C6057.1 998.3 6190.5 1100.4 6311.2 1166.1L6308.6 1170.9C6187.5 1105 6053.9 1002.8 5938.1 912.1C5819.7 819.4 5697.3 723.5 5558.3 652.9C5428.2 586.8 5281.6 542.6 5122.6 521.5C5021.8 508.2 4915 504.2 4805.3 509.6C4450 526.9 4107.3 634.2 3814.5 819.8C3653.5 921.8 3511.8 1041 3361.7 1167.3C3258.1 1254.5 3151 1344.6 3037.2 1428.2C2962.8 1482.9 2882.1 1530.9 2797.4 1570.7C2712.8 1610.5 2624.3 1642.2 2534.4 1664.9C2443.3 1687.9 2350.7 1701.7 2259.3 1705.8C2209.2 1707.9 2159.3 1707.2 2110.1 1703.7Z" fill="white"/>
</g>
<g opacity="0.5455">
<path d="M2129.5 1746.8C2093.8 1744.2 2058.6 1740 2024 1734.1C1975.7 1725.9 1927.4 1714.5 1880.6 1700.3C1808 1678.2 1736.2 1650 1667.4 1616.6C1598.3 1583 1531.9 1544 1469.9 1500.5C1407 1456.4 1348.3 1407.5 1295.5 1355.2C1241.4 1301.6 1192.9 1244 1151.6 1183.9C1105 1116.2 1076 1038.5 1048.1 963.4C1031.4 918.4 1014 872 993.1 828.1C923.6 683.1 843 584.2 746.5 525.6C575.6 422.1 360.6 446.5 213.7 473.8L212.8 469.1C319.2 449.3 409.9 442 489.9 446.7C590.8 452.6 675.5 477.1 749 521.6C802.3 554 851.5 599.2 895.4 656.1C931.9 703.4 965.3 759 997.4 826.1C1018.4 870.1 1035.8 916.7 1052.5 961.8C1080.4 1036.6 1109.2 1114 1155.5 1181.3C1318 1417.2 1582.8 1604.7 1882 1695.8C1928.7 1710 1976.7 1721.3 2024.8 1729.5C2059.7 1735.4 2095.2 1739.7 2130.8 1742.2C2428.4 1763.6 2747.6 1668.6 3022.1 1474.4C3115 1408.7 3205.2 1340.2 3292.4 1274C3473 1136.9 3643.5 1007.4 3835.8 900.4C3987 816.2 4150.7 750 4322.2 703.4C4495 656.6 4672.9 630.5 4851.1 626C4963.3 623.1 5071.3 629.4 5172.2 644.6C5334.7 669.3 5482.2 717.5 5610.6 787.9C5729.5 853.1 5837 940 5940.9 1024.1C5956 1036.3 5971.6 1049 5987.1 1061.4C6085.5 1140.4 6232 1251.9 6368.1 1307.8L6366.3 1312.3C6308 1288.3 6245 1253.6 6174 1206.2C6117.6 1168.6 6055.5 1122.5 5984.2 1065.2C5968.7 1052.8 5953.1 1040.1 5938 1027.9C5829.4 940.1 5726.9 857.1 5608.4 792.1C5480.6 722 5333.6 673.9 5171.6 649.4C5071 634.2 4963.2 627.9 4851.3 630.8C4493.9 639.9 4143.6 734.5 3838.2 904.6C3646.2 1011.5 3475.8 1140.9 3295.4 1277.8C3208.1 1344.1 3117.9 1412.6 3025 1478.3C2879.2 1581.5 2713.6 1659.7 2546 1704.6C2459.1 1727.9 2371.5 1742.4 2285.6 1747.6C2232.9 1750.7 2180.8 1750.5 2129.5 1746.8Z" fill="white"/>
</g>
<g opacity="0.4545">
<path d="M2151.1 1790.3C2122 1788.2 2093.1 1784.9 2064.6 1780.3C2018.6 1773 1972.8 1762.4 1928.5 1748.9C1859.9 1728.1 1792.2 1700.8 1727.2 1667.9C1662.6 1635.2 1600.6 1596.8 1542.8 1553.8C1484.6 1510.5 1430.6 1462.5 1382.2 1410.9C1332.9 1358.5 1289.2 1302.2 1252.4 1243.7C1204 1166.9 1176.2 1079.5 1149.3 995C1133.4 945.1 1117 893.5 1096.5 844.7C1027.8 681.4 943.2 570.2 837.8 504.7C660.3 394.6 433.5 418.6 255.9 451.7L255.1 447.6C375.5 425.1 471.7 416.6 557.7 420.6C668.8 425.8 761.1 452.2 840 501.1C946.2 567.1 1031.4 679 1100.4 843.1C1120.9 892.1 1137.4 943.8 1153.3 993.8C1180.1 1078.1 1207.8 1165.2 1255.9 1241.5C1403.9 1476.3 1649.5 1659.8 1929.8 1744.9C1974 1758.3 2019.6 1768.8 2065.4 1776.2C2361.3 1823.7 2705.8 1732.1 3010.4 1524.9C3068.7 1485.2 3126.9 1444.8 3183.1 1405.8C3408.6 1249.2 3621.6 1101.3 3860.2 985.4C4178.6 830.8 4537.2 748.5 4897.4 747.6C5011.7 747.3 5120.7 755.8 5221.4 772.9C5386.8 801.1 5534.6 853.1 5660.7 927.5C5765.9 989.5 5860.7 1069.7 5952.4 1147.2C5978.7 1169.4 6005.9 1192.4 6033 1214.7C6185.4 1340 6313.7 1416.8 6425.3 1449.3L6424.1 1453.3C6312 1420.6 6183.2 1343.6 6030.4 1217.9C6003.2 1195.6 5976.1 1172.6 5949.8 1150.3C5858.2 1072.9 5763.5 992.8 5658.6 931C5532.9 856.9 5385.6 805 5220.7 776.9C5120.3 759.8 5011.5 751.4 4897.4 751.7C4537.8 752.6 4179.8 834.7 3862 989C3623.6 1104.8 3410.8 1252.6 3185.4 1409.1C3129.2 1448.2 3071 1488.5 3012.6 1528.2C2942.4 1575.9 2868.9 1618.3 2793.9 1654.2C2716 1691.5 2636.5 1721.8 2557.5 1744.3C2417.6 1784.3 2281.3 1799.6 2151.1 1790.3Z" fill="white"/>
</g>
<g opacity="0.3636">
<path d="M2172.9 1833.9C2150.1 1832.3 2127.5 1829.8 2105.3 1826.4C2061.7 1819.9 2018.3 1810.2 1976.5 1797.4C1912 1777.8 1848.4 1751.4 1787.3 1718.9C1727.4 1687 1669.8 1649.2 1616.2 1606.5C1509.3 1521.3 1418.3 1416.5 1353.1 1303.2C1303.6 1217.2 1276.9 1120.4 1251 1026.8C1235.8 971.8 1220.1 915 1200 861C1132.2 679.5 1043.6 556 929.1 483.4C744 366.3 506.2 390.3 298 429.3L297.3 425.8C388.1 408.8 507.5 389.8 625.4 394.3C746.6 398.9 846.5 427 930.9 480.4C1046 553.4 1135.1 677.5 1203.2 859.7C1223.4 913.9 1239.1 970.8 1254.3 1025.8C1280.1 1119.2 1306.8 1215.8 1356 1301.4C1488.7 1532 1720.9 1716.1 1977.3 1793.9C2019 1806.6 2062.2 1816.3 2105.6 1822.7C2374.7 1863 2691.7 1775.1 2998.2 1575.3C3139.8 1483 3286.3 1387.5 3434.3 1300.3C3599.1 1203.2 3742.1 1130.1 3884.2 1070.4C4214.6 931.6 4580.9 862 4943.3 869.2C5059.9 871.5 5169.8 882.2 5270.1 901.1C5438.1 932.9 5586.3 988.7 5710.3 1067.1C5805.6 1127.3 5891.3 1203.4 5974.1 1277C6008 1307.1 6043 1338.2 6078.4 1368.1C6228.3 1494.4 6364.1 1569.3 6482 1590.9L6481.4 1594.4C6362.9 1572.7 6226.5 1497.5 6076.1 1370.8C6040.6 1340.9 6005.6 1309.8 5971.7 1279.7C5889 1206.2 5803.4 1130.1 5708.3 1070.1C5584.6 992 5436.9 936.3 5269.3 904.6C5169.2 885.7 5059.4 875 4943.1 872.7C4581.1 865.5 4215.4 934.9 3885.4 1073.6C3572 1205.3 3281.2 1394.9 3000 1578.2C2857.2 1671.3 2712.1 1740.6 2568.9 1784.1C2431.2 1826.3 2298.2 1842.9 2172.9 1833.9Z" fill="white"/>
</g>
<g opacity="0.2727">
<path d="M2196.3 1877.9C2179.3 1876.7 2162.5 1874.9 2145.9 1872.6C2104.7 1866.9 2063.8 1858 2024.4 1846.1C1964 1827.8 1904.4 1802.2 1847.4 1770.2C1792.2 1739.2 1739.2 1701.9 1690 1659.6C1593.5 1576.6 1511.9 1474.1 1454 1363.2C1404.2 1267.9 1378.4 1162 1353.4 1059.5C1338.7 999.3 1323.5 937.1 1303.7 877.7C1236.7 678 1144.2 542.2 1020.7 462.6C827.3 338.1 579.4 362.5 340.4 407.4L339.9 404.5C579.5 359.5 828.1 335.1 1022.3 460.1C1089.4 503.4 1148.8 565 1198.7 643.2C1240.6 708.9 1275.8 785.2 1306.5 876.7C1326.4 936.2 1341.6 998.5 1356.3 1058.7C1381.3 1161 1407.1 1266.7 1456.7 1361.7C1576.8 1591.6 1789.4 1771.6 2025.4 1843.2C2064.7 1855.1 2105.4 1864 2146.5 1869.6C2390.7 1903.2 2673.4 1821.3 2986.7 1626.1C3159.1 1518.7 3302.9 1435.5 3439.1 1364.4C3603.5 1278.6 3757.2 1210.3 3908.8 1155.8C4078.8 1094.7 4256.8 1049.6 4437.7 1021.9C4620.6 993.8 4806.4 983.5 4989.9 991.2C5108.8 996.1 5219.7 1009.1 5319.6 1029.8C5401.5 1046.8 5479 1069.5 5549.7 1097.3C5626.3 1127.4 5697.3 1164.3 5760.7 1207.1C5848.7 1266.3 5927.3 1340 6003.4 1411.3C6042.6 1448 6083.2 1486 6124.7 1521.8C6272.9 1649.5 6416.4 1722.5 6539.8 1732.9L6539.6 1735.8C6472.1 1730.1 6399.1 1706.2 6322.7 1664.9C6258.1 1630 6190.9 1582.6 6122.9 1524C6081.3 1488.1 6040.7 1450.1 6001.5 1413.4C5925.5 1342.2 5846.9 1268.6 5759.2 1209.5C5637.4 1127.4 5489.4 1067.9 5319.1 1032.6C5219.4 1012 5108.6 999 4989.9 994.1C4625.2 978.8 4251.8 1035.7 3909.9 1158.5C3561.7 1283.6 3248.7 1466.3 2988.4 1628.5C2846.7 1716.8 2709.7 1782.7 2581.4 1824.4C2445.2 1868.6 2316 1886.5 2196.3 1877.9Z" fill="white"/>
</g>
<g opacity="0.1818">
<path d="M2221.7 1922.2C2209.8 1921.3 2198.1 1920.2 2186.5 1918.8C2147.7 1914 2109.2 1905.9 2072.3 1894.7C2015.9 1877.6 1960.5 1852.9 1907.7 1821.4C1857.2 1791.2 1808.9 1754.6 1764.1 1712.5C1678.2 1631.8 1605.8 1531.7 1554.8 1423C1505.7 1318.4 1480.5 1203.7 1456.1 1092.8C1441.7 1027.2 1426.8 959.5 1407.1 894.4C1341 676.4 1244.5 528.3 1112 441.7C899.6 303 624.1 339.9 382.5 385.4L382.1 383.2C497.4 361.5 632.7 339.7 761.4 342.6C902.7 345.7 1017.9 377.6 1113.3 439.9C1185.1 486.8 1247.8 553.9 1299.7 639.2C1342.7 710 1379.7 795.7 1409.4 893.8C1429.1 958.9 1444 1026.8 1458.4 1092.4C1482.7 1203.2 1507.9 1317.8 1556.9 1422.2C1664.5 1651.6 1857.5 1827.5 2073 1892.7C2109.9 1903.9 2148.2 1911.9 2186.9 1916.7C2468.3 1951.6 2755.7 1807 2974.7 1677C3311.7 1477 3625.1 1334.5 3932.9 1241.3C4109.1 1187.9 4291.8 1149.9 4476 1128.4C4662.2 1106.6 4850.6 1101.5 5035.9 1113.3C5158.8 1121.1 5267.6 1135.9 5368.4 1158.5C5451.4 1177.2 5529.2 1201.6 5599.8 1231C5676.8 1263.1 5747.6 1302.1 5810.4 1347.2C5892.6 1406.1 5965.7 1478.4 6036.4 1548.4C6079.4 1590.9 6123.9 1634.9 6170.2 1675.7C6274 1767.1 6432.2 1876 6596.8 1875.1V1877.4C6586.9 1877.5 6577.1 1877.1 6567.3 1876.4C6412.8 1865.3 6266.6 1763.7 6168.7 1677.4C6122.3 1636.6 6077.8 1592.5 6034.8 1550C5964.2 1480.1 5891.1 1407.9 5809 1349.1C5689.1 1263.1 5540.6 1199.8 5367.8 1160.9C5267.1 1138.3 5158.4 1123.5 5035.6 1115.7C4667.9 1092.4 4286.8 1136.6 3933.4 1243.7C3625.8 1336.9 3312.5 1479.3 2975.7 1679.2C2829 1766.2 2707.3 1825.3 2592.8 1865.2C2522.7 1889.6 2454.6 1906.6 2390.5 1915.9C2332.5 1923.9 2275.9 1926.1 2221.7 1922.2Z" fill="white"/>
</g>
<g opacity="0.090909">
<path d="M2249 1966.9C2241.7 1966.4 2234.4 1965.7 2227.2 1964.9C2190.8 1961 2154.8 1953.7 2120.3 1943.2C2067.8 1927.3 2016.6 1903.5 1968.3 1872.5C1922.6 1843.2 1879 1807.1 1838.8 1765.4C1763.5 1687.3 1700.3 1589.6 1655.8 1482.7C1608.5 1368.8 1583.7 1245.9 1559.7 1127C1545.3 1055.7 1530.4 981.9 1510.8 910.8C1446.6 677.9 1343.2 512.9 1203.5 420.5C981.7 273.8 697.2 311.7 424.8 363L424.5 361.4C555.7 336.7 695.5 314.1 829.3 316.2C980.7 318.6 1103.4 352.3 1204.4 419.1C1280.8 469.7 1346.9 542.2 1400.7 634.6C1445.5 711.5 1483.1 804.2 1512.3 910.4C1531.9 981.5 1546.8 1055.3 1561.2 1126.7C1585.2 1245.5 1609.9 1368.4 1657.2 1482.1C1752.3 1710.9 1925.6 1882.7 2120.7 1941.7C2155.2 1952.1 2191 1959.4 2227.3 1963.3C2472 1989.8 2714.8 1866.9 2962.6 1727.5C3121.9 1637.9 3285.1 1559 3447.9 1493C3615.4 1425 3786.7 1369 3956.9 1326.4C4139.1 1280.8 4326.6 1249.9 4514.1 1234.5C4703.4 1218.9 4894.4 1219.1 5081.8 1234.9C5207.2 1245.5 5316.9 1262.5 5417.2 1286.8C5501.2 1307.2 5579.4 1333.2 5649.9 1364.2C5727.3 1398.2 5798 1439.4 5860.2 1486.7C5937.8 1545.7 6006.4 1617.4 6072.8 1686.6C6118.6 1734.4 6165.9 1783.8 6215.9 1828.9C6320.3 1922.9 6481.1 2031.8 6654.1 2016.6L6654.2 2018.2C6634.5 2019.9 6614.5 2020.1 6594.2 2018.6C6538.4 2014.6 6480.5 1998.6 6421.1 1970.8C6352 1938.5 6282.6 1891.1 6214.8 1830.1C6164.7 1785 6117.4 1735.5 6071.6 1687.7C6005.3 1618.5 5936.7 1546.9 5859.2 1487.9C5739.3 1396.7 5594.6 1331.4 5416.9 1288.3C5316.7 1264 5207.1 1247 5081.8 1236.5C5067.5 1235.3 5053.1 1234.2 5038.8 1233.1C4676.6 1207.1 4313 1238.9 3957.4 1327.9C3621.6 1411.9 3287.2 1546.8 2963.6 1728.8C2850.7 1792.3 2730 1858.2 2604.8 1905.1C2473.3 1954.4 2356.6 1974.7 2249 1966.9Z" fill="white"/>
</g>
</svg>
