<svg width="812" height="812" viewBox="0 0 812 812" fill="none" xmlns="http://www.w3.org/2000/svg">
<path d="M793.755 375.271L711.655 261.629C698.764 243.79 677.931 233.133 655.906 233.133H533.763V191.074C533.763 156.411 505.559 128.207 470.897 128.207H128.461C110.939 128.207 96.7422 142.404 96.7422 159.926C96.7422 177.447 110.939 191.645 128.461 191.645L470.326 191.074V466.925C470.326 484.447 484.523 498.644 502.044 498.644C519.566 498.644 533.763 484.447 533.763 466.925V296.57H655.906C657.618 296.57 659.23 297.395 660.232 298.778L742.219 412.077L742.802 524.691H685.277C668.999 509.847 647.443 500.712 623.73 500.712C573.259 500.712 532.203 541.769 532.203 592.24C532.203 642.723 573.259 683.78 623.73 683.78C674.214 683.78 715.27 642.723 715.27 592.24C715.27 590.857 715.118 589.499 715.068 588.129H742.802C777.452 588.129 805.656 559.925 805.656 525.275V412.077C805.656 398.806 801.546 386.08 793.755 375.271ZM623.73 620.355C608.239 620.355 595.64 607.756 595.64 592.252C595.64 576.761 608.239 564.162 623.73 564.162C639.234 564.162 651.833 576.761 651.833 592.252C651.833 607.744 639.234 620.355 623.73 620.355Z" fill="black"/>
<path d="M188.27 500.725C164.557 500.725 143.001 509.86 126.723 524.704H38.0625C20.5411 524.704 6.34375 538.901 6.34375 556.423C6.34375 573.944 20.5411 588.141 38.0625 588.141H96.9452C96.8817 589.512 96.7422 590.869 96.7422 592.252C96.7422 642.736 137.799 683.793 188.27 683.793C238.741 683.793 279.797 642.736 279.797 592.252C279.797 541.781 238.728 500.725 188.27 500.725ZM188.27 620.355C172.778 620.355 160.18 607.756 160.18 592.252C160.18 576.761 172.778 564.162 188.27 564.162C203.761 564.162 216.36 576.761 216.36 592.252C216.36 607.744 203.761 620.355 188.27 620.355Z" fill="black"/>
<path d="M472.153 524.704H339.848C322.326 524.704 308.129 538.901 308.129 556.423C308.129 573.944 322.326 588.142 339.848 588.142H472.153C489.674 588.142 503.872 573.944 503.872 556.423C503.872 538.901 489.674 524.704 472.153 524.704Z" fill="black"/>
<path d="M38.0625 325.422H271.88C289.402 325.422 303.599 311.225 303.599 293.703C303.599 276.182 289.402 261.984 271.88 261.984H38.0625C20.5411 261.984 6.34375 276.182 6.34375 293.703C6.34375 311.225 20.5411 325.422 38.0625 325.422Z" fill="black"/>
<path d="M95.1562 420.337C95.1562 437.846 109.354 452.056 126.875 452.056H360.693C378.214 452.056 392.412 437.846 392.412 420.337C392.412 402.816 378.214 388.618 360.693 388.618H126.875C109.354 388.618 95.1562 402.816 95.1562 420.337Z" fill="black"/>
</svg>
