<svg width="684" height="683" viewBox="0 0 684 683" fill="none" xmlns="http://www.w3.org/2000/svg">
<g clip-path="url(#clip0_59_2)">
<mask id="mask0_59_2" style="mask-type:luminance" maskUnits="userSpaceOnUse" x="0" y="0" width="684" height="683">
<path d="M0.5 -0.00012207H683.167V682.667H0.5V-0.00012207Z" fill="white"/>
</mask>
<g mask="url(#mask0_59_2)">
<path d="M344.314 234.005C344.314 300.097 291.874 353.676 227.184 353.676C162.496 353.676 110.054 300.097 110.054 234.005C110.054 167.912 162.496 114.333 227.184 114.333C291.874 114.333 344.314 167.912 344.314 234.005Z" stroke="#FF6359" stroke-width="40" stroke-miterlimit="10"/>
<path d="M52.8792 567.667C32.9232 567.667 17.5458 549.285 21.1085 529.223C38.8338 429.387 124.355 353.676 227.184 353.676C330.014 353.676 415.534 429.387 433.261 529.223C436.822 549.285 421.446 567.667 401.489 567.667H52.8792Z" stroke="#FF6359" stroke-width="40" stroke-miterlimit="10"/>
<path d="M594.008 217.367C594.008 268.53 553.415 310.006 503.338 310.006C453.262 310.006 412.667 268.53 412.667 217.367C412.667 166.206 453.262 124.73 503.338 124.73C553.415 124.73 594.008 166.206 594.008 217.367Z" stroke="#FF6359" stroke-width="40" stroke-miterlimit="10"/>
<path d="M358.564 401.002C385.284 347.018 440.081 310.005 503.337 310.005C582.937 310.005 649.14 368.612 662.861 445.896C665.619 461.425 653.715 475.654 638.267 475.654H416.333" stroke="#FF6359" stroke-width="40" stroke-miterlimit="10"/>
</g>
</g>
<defs>
<clipPath id="clip0_59_2">
<rect width="682.667" height="682.667" fill="white" transform="translate(0.5)"/>
</clipPath>
</defs>
</svg>
