<svg width="506" height="506" viewBox="0 0 506 506" fill="none" xmlns="http://www.w3.org/2000/svg">
<g clip-path="url(#clip0_59_17)">
<path d="M437.6 233.45C452.4 223.05 462.2 205.75 462.2 186.25C462.2 154.35 436.4 128.55 404.5 128.55C372.6 128.55 346.8 154.35 346.8 186.25C346.8 205.75 356.5 223.05 371.4 233.45C358.7 237.85 347.1 244.65 337.3 253.45C323.8 241.95 307.9 233.15 290.5 227.95C311.6 215.15 325.8 191.85 325.8 165.35C325.8 124.95 293.1 92.25 252.7 92.25C212.3 92.25 179.6 125.05 179.6 165.35C179.6 191.85 193.7 215.15 214.9 227.95C197.7 233.15 182 241.85 168.6 253.15C158.8 244.55 147.4 237.85 134.9 233.55C149.7 223.15 159.5 205.85 159.5 186.35C159.5 154.45 133.7 128.65 101.8 128.65C69.9 128.65 44.1 154.45 44.1 186.35C44.1 205.85 53.8 223.15 68.7 233.55C29 247.25 0.5 284.95 0.5 329.25V335.85C0.5 336.05 0.7 336.25 0.9 336.25H123.2C122.5 341.75 122.1 347.45 122.1 353.15V359.95C122.1 389.35 145.9 413.15 175.3 413.15H330.3C359.7 413.15 383.5 389.35 383.5 359.95V353.15C383.5 347.45 383.1 341.75 382.4 336.25H505.5C505.7 336.25 505.9 336.05 505.9 335.85V329.25C505.7 284.85 477.3 247.15 437.6 233.45ZM362.8 186.15C362.8 163.15 381.5 144.45 404.5 144.45C427.5 144.45 446.2 163.15 446.2 186.15C446.2 208.85 427.9 227.35 405.3 227.85C405 227.85 404.8 227.85 404.5 227.85C404.2 227.85 404 227.85 403.7 227.85C381 227.45 362.8 208.95 362.8 186.15ZM195.4 165.35C195.4 133.85 221 108.25 252.5 108.25C284 108.25 309.6 133.85 309.6 165.35C309.6 195.75 285.7 220.65 255.8 222.35C254.7 222.35 253.6 222.35 252.5 222.35C251.4 222.35 250.3 222.35 249.2 222.35C219.3 220.65 195.4 195.75 195.4 165.35ZM59.8 186.15C59.8 163.15 78.5 144.45 101.5 144.45C124.5 144.45 143.2 163.15 143.2 186.15C143.2 208.85 124.9 227.35 102.3 227.85C102 227.85 101.8 227.85 101.5 227.85C101.2 227.85 101 227.85 100.7 227.85C78.1 227.45 59.8 208.95 59.8 186.15ZM126 320.15H16.7C21.2 277.55 57.2 244.15 100.9 243.85C101.1 243.85 101.3 243.85 101.5 243.85C101.7 243.85 101.9 243.85 102.1 243.85C122.9 243.95 141.9 251.65 156.6 264.15C142.2 279.75 131.5 298.95 126 320.15ZM367.3 359.95C367.3 380.45 350.6 397.15 330.1 397.15H175.1C154.6 397.15 137.9 380.45 137.9 359.95V353.15C137.9 291.05 187.5 240.25 249.2 238.45C250.3 238.55 251.5 238.55 252.6 238.55C253.7 238.55 254.9 238.55 256 238.45C317.7 240.25 367.3 291.05 367.3 353.15V359.95ZM379.2 320.15C373.7 299.05 363.2 280.15 348.9 264.55C363.7 251.75 382.9 244.05 403.9 243.85C404.1 243.85 404.3 243.85 404.5 243.85C404.7 243.85 404.9 243.85 405.1 243.85C448.8 244.15 484.8 277.55 489.3 320.15H379.2Z" fill="#FF6359"/>
</g>
<defs>
<clipPath id="clip0_59_17">
<rect width="505.4" height="505.4" fill="white" transform="translate(0.5)"/>
</clipPath>
</defs>
</svg>
